<svg x="0" y="0" width="60" height="53.6240950933953" filtersec="colorsb290686335" class="image-svg-svg primary" style="overflow: visible;"><svg xmlns="http://www.w3.org/2000/svg" viewBox="0.026538599282503128 -0.014948096126317978 171.18775939941406 152.99659729003906"><path d="M77.53.32l-.28.5L61 30.18 48.53 52.51 32.88 80.67l-15.57 28c-.17.31-.26.83-.61.84s-.49-.55-.66-.88Q8.12 93.68.19 78.72A1.58 1.58 0 0 1 .4 77l12.72-22.51L41.83 3.73c.57-1 1.15-2 1.69-3A1.13 1.13 0 0 1 44.65 0H76.8c.26 0 .63-.12.73.32z" fill="#20adee"></path><path d="M154.55 43.32c1.34 2.53 2.61 4.92 3.87 7.31Q164.69 62.5 171 74.35a1.3 1.3 0 0 1 0 1.43l-16.52 29.35-17.87 31.74-8.64 15.36a1.22 1.22 0 0 1-1.19.75H94.62c-1 0-1 0-.52-.91l17.07-30.72q7.61-13.68 15.23-27.36 9.09-16.35 18.17-32.72L154 44.09c.15-.21.3-.4.55-.77z" fill="#f58220"></path><path d="M21.48 120a54.81 54.81 0 0 1 2.72-4.92q15.15-26.67 30.35-53.37l28.32-49.83.41-.7c.39.08.47.41.61.66q7.94 13.55 15.86 27.1a1.46 1.46 0 0 1 0 1.65Q84.31 68.86 68.88 97.15l-11.66 21.4c-2.36.12-4.72.26-7.08.35-3.76.15-7.53.23-11.29.43-1.39.07-2.79.08-4.18.17-4.39.3-8.79.5-13.19.5z" fill="#0c56a7"></path><path d="M149.68 32.88c.06.41-.22.68-.39 1Q139 52 128.67 70.12l-15.5 27.3-24.67 43.4c-.69 1.21-.7 1.21-1.43 0q-7.84-13.44-15.71-26.86a1.16 1.16 0 0 1 0-1.33q8.16-14.89 16.28-29.8l18.27-33.49L114 34.51c.85.05 1.69-.14 2.53-.16 2.4-.08 4.79-.28 7.18-.35 4.46-.13 8.91-.35 13.36-.57 4.19-.21 8.4-.37 12.61-.55z" fill="#fdca06"></path><path d="M21.48 120c4.4-.09 8.8-.24 13.19-.54 1.39-.09 2.79-.1 4.18-.17 3.76-.2 7.53-.28 11.29-.43 2.36-.09 4.72-.23 7.08-.35q10 16.7 19.91 33.41c.14.24.47.5.31.8s-.56.15-.84.15H40.33a1.53 1.53 0 0 1-1.56-.92q-8.52-15.61-17.09-31.22c-.13-.17-.32-.39-.2-.73z" fill="#20adee"></path><path d="M149.68 32.88c-4.21.18-8.42.34-12.63.55-4.45.22-8.9.44-13.36.57-2.39.07-4.78.27-7.18.35-.84 0-1.68.21-2.53.16L94.06 1c-.52-.87-.51-.88.5-.88h36.52a1.12 1.12 0 0 1 1.16.64q8.56 15.69 17.17 31.36c.13.24.36.45.27.76z" fill="#f58220"></path></svg></svg>